# xmcd CD database file
#
# Track frame offsets:
#	150
#	25455
#	55792
#	79055
#	98609
#	118463
#	145112
#	165305
#	190254
#	220142
#	240034
#
# Disc length: 3586 seconds
#
# Revision: 1
# Processed by: cddbd v1.5.1PL0 Copyright (c) Steve Scherf et al.
# Submitted via: CDex 1.51
#
DISCID=890e000b
DTITLE=Aragon - Anos de oro
DYEAR=1900
DGENRE=Salsa
TTITLE0=De la opera al cha cha cha
TTITLE1=Pare cochero
TTITLE2=Vivo en la calla 22
TTITLE3=Besito con mezancha
TTITLE4=Un beso de recuerdo
TTITLE5=Charlas de momento
TTITLE6=Buscas los lentes
TTITLE7=Espanolita
TTITLE8=Que viva El cha cha cha
TTITLE9=Casertia villarena
TTITLE10=Repicando bata
EXTD=
EXTT0=
EXTT1=
EXTT2=
EXTT3=
EXTT4=
EXTT5=
EXTT6=
EXTT7=
EXTT8=
EXTT9=
EXTT10=
PLAYORDER=
